HIERARCHY
ROOT Hips
{
	OFFSET -3.958830 18.904000 13.208200
	CHANNELS 6 Xposition Yposition Zposition Zrotation Yrotation Xrotation 
	JOINT LHipJoint
	{
		OFFSET 0.000000 0.000000 0.000000
		CHANNELS 3 Zrotation Yrotation Xrotation
		JOINT LeftUpLeg
		{
			OFFSET 1.800000 -1.400000 0.085000
			CHANNELS 3 Zrotation Yrotation Xrotation
			JOINT LeftLeg
			{
				OFFSET 2.215000 -6.000000 0.000000
				CHANNELS 3 Zrotation Yrotation Xrotation
				JOINT LeftFoot
				{
					OFFSET 2.500000 -6.900000 0.000000
					CHANNELS 3 Zrotation Yrotation Xrotation
					JOINT LeftToeBase
					{
						OFFSET 0.200000 -0.500000 1.950000
						CHANNELS 3 Zrotation Yrotation Xrotation
						End Site
						{
							OFFSET 0.000000 0.000000 0.000000
						}
					}
				}
			}
		}
	}
	JOINT RHipJoint
	{
		OFFSET 0.000000 0.000000 0.000000
		CHANNELS 3 Zrotation Yrotation Xrotation
		JOINT RightUpLeg
		{
			OFFSET -1.800000 -1.400000 0.085000
			CHANNELS 3 Zrotation Yrotation Xrotation
			JOINT RightLeg
			{
				OFFSET -2.215000 -6.000000 0.000000
				CHANNELS 3 Zrotation Yrotation Xrotation
				JOINT RightFoot
				{
					OFFSET -2.500000 -6.900000 0.000000
					CHANNELS 3 Zrotation Yrotation Xrotation
					JOINT RightToeBase
					{
						OFFSET -0.200000 -0.500000 1.950000
						CHANNELS 3 Zrotation Yrotation Xrotation
						End Site
						{
							OFFSET 0.000000 0.000000 0.000000
						}
					}
				}
			}
		}
	}
	JOINT LowerBack
	{
		OFFSET 0.000000 0.000000 0.000000
		CHANNELS 3 Zrotation Yrotation Xrotation
		JOINT Spine
		{
			OFFSET -0.087000 1.940000 -0.288900
			CHANNELS 3 Zrotation Yrotation Xrotation
			JOINT Spine1
			{
				OFFSET 0.000000 1.950000 0.060000
				CHANNELS 3 Zrotation Yrotation Xrotation
				JOINT Neck
				{
					OFFSET 0.000000 0.000000 0.000000
					CHANNELS 3 Zrotation Yrotation Xrotation
					JOINT Neck1
					{
						OFFSET 0.000000 1.600000 0.340000
						CHANNELS 3 Zrotation Yrotation Xrotation
						JOINT Head
						{
							OFFSET 0.000000 1.667000 -0.240000
							CHANNELS 3 Zrotation Yrotation Xrotation
							End Site
							{
								OFFSET 0.000000 0.000000 0.000000
							}
						}
					}
				}
				JOINT LeftShoulder
				{
					OFFSET 0.000000 0.000000 0.000000
					CHANNELS 3 Zrotation Yrotation Xrotation
					JOINT LeftArm
					{
						OFFSET 2.700000 1.550000 -0.730000
						CHANNELS 3 Zrotation Yrotation Xrotation
						JOINT LeftForeArm
						{
							OFFSET 5.450000 0.000000 0.000000
							CHANNELS 3 Zrotation Yrotation Xrotation
							JOINT LeftHand
							{
								OFFSET 3.450000 0.000000 0.000000
								CHANNELS 3 Zrotation Yrotation Xrotation
								JOINT LeftHandIndex1
								{
									OFFSET 0.750000 0.000000 0.000000
									CHANNELS 3 Zrotation Yrotation Xrotation
									End Site
									{
										OFFSET 0.000000 0.000000 0.000000
									}
								}
							}
						}
					}
				}
				JOINT RightShoulder
				{
					OFFSET 0.000000 0.000000 0.000000
					CHANNELS 3 Zrotation Yrotation Xrotation
					JOINT RightArm
					{
						OFFSET -2.700000 1.550000 -0.730000
						CHANNELS 3 Zrotation Yrotation Xrotation
						JOINT RightForeArm
						{
							OFFSET -5.450000 0.000000 0.000000
							CHANNELS 3 Zrotation Yrotation Xrotation
							JOINT RightHand
							{
								OFFSET -3.450000 0.000000 0.000000
								CHANNELS 3 Zrotation Yrotation Xrotation
								JOINT RightHandIndex1
								{
									OFFSET -0.750000 0.000000 0.000000
									CHANNELS 3 Zrotation Yrotation Xrotation
									End Site
									{
										OFFSET 0.000000 0.000000 0.000000
									}
								}
							}
						}
					}
				}
			}
		}
	}
}
MOTION
Frames: 7
Frame Time: 0.016667
0.847560 17.546060 4.014550 -159.487482 -50.291443 152.072538 -15.554898 11.310026 1.064125 11.090904 -0.030242 -1.067215 -5.485549 5.879166 10.046162 -0.249067 4.596588 3.068199 0.438880 0.269150 0.275820 18.522428 -7.985314 6.156596 -29.077829 5.683723 -49.899528 93.449825 -40.527092 23.620837 -2.601591 -11.544366 0.563899 0.235660 0.145640 0.207130 -6.193494 0.495356 -9.240557 42.120531 -8.232205 13.277957 -19.279337 -1.507637 15.058106 7.282140 -2.313500 -12.578435 -5.637201 -6.607349 32.332495 -1.044770 -8.632780 -11.889110 -9.127339 -27.563335 8.647685 -14.223603 -25.922808 0.303728 107.818251 -69.387747 -92.441813 -3.834470 1.564711 0.258360 0.049280 -0.020720 0.125590 -5.760262 28.384085 5.688152 15.737813 26.660129 -7.010978 -95.990277 75.293215 -79.001253 1.328767 3.523119 -0.055090 0.153490 -0.015200 -0.064960 
0.742810 17.513550 3.949850 -163.621550 -41.772642 156.503185 -15.243611 11.293072 1.087988 10.487624 0.025755 0.001329 -4.769393 5.866384 11.225117 -0.249514 4.585647 3.067028 0.461850 0.326120 0.260650 18.776762 -8.315627 6.192785 -26.301465 7.361772 -49.716206 83.603633 -39.079136 28.210131 -2.585797 -11.627005 0.531658 0.256480 0.159650 0.215980 -5.970614 0.446300 -9.131896 39.576664 -8.628691 14.589466 -17.823387 -2.417132 15.486216 7.295825 -1.368612 -12.200485 -3.921058 -6.366775 33.401226 0.433560 -8.482770 -13.847850 -9.932975 -31.845157 9.211093 -13.222073 -25.898999 -3.329139 96.066893 -69.433548 -74.083922 -3.535121 0.874320 0.277590 0.043530 0.013070 0.142720 -4.839789 31.848380 3.951010 14.317913 26.089966 -13.842762 -76.985726 79.893211 -59.767779 0.850988 2.060551 -0.039930 0.192620 -0.014030 -0.043520 
0.634940 17.474780 3.968230 -166.415460 -27.525172 163.840318 -14.898031 11.143393 1.077125 9.247540 -0.206281 -2.435271 -4.247638 5.462417 11.600948 -0.271338 4.224532 3.184120 0.443290 0.326100 0.211030 19.119914 -8.329342 6.640870 -27.470815 7.215301 -51.474402 87.138230 -29.504000 20.098852 -2.332098 -10.560721 0.820124 0.240190 0.187280 0.239680 -5.724494 0.405369 -9.061568 40.368401 -8.085859 14.415996 -17.899084 -0.822972 16.274130 7.356126 -1.586652 -13.604069 -4.348198 -7.157250 32.539498 0.582110 -9.537520 -12.536770 -9.607096 -33.687674 8.443073 -14.625714 -26.780261 -6.125118 83.149077 -67.371867 -58.296069 -3.436968 1.477796 0.214030 0.069550 -0.004380 0.157400 -5.416938 34.338191 6.288055 14.039542 25.773517 -12.499065 -88.890842 72.867306 -66.711988 1.102880 1.905224 0.000680 0.163770 -0.009750 0.000570 
0.502560 17.396730 3.919930 -169.019951 -14.334694 168.823822 -14.766968 11.165255 1.197020 6.908981 -0.180617 -3.582374 -3.643880 5.167998 12.155105 -0.313202 3.956673 3.257239 0.457200 0.319620 0.266180 19.220501 -8.308418 6.968174 -28.863787 8.638368 -52.156106 84.388026 -23.561287 17.692738 -2.165890 -9.862198 0.987161 0.224770 0.120080 0.232210 -5.591731 0.420581 -9.053618 38.558670 -6.608818 16.339947 -17.124493 0.970476 15.047912 7.675490 -1.494971 -13.848161 -4.038734 -7.239301 32.875748 -0.174250 -8.808380 -13.207390 -11.656717 -33.941184 8.832881 -15.372212 -25.509982 -6.911115 77.740150 -65.969389 -52.450605 -3.401398 1.763089 0.256630 0.028270 0.028090 0.134680 -4.062677 35.685269 5.563657 13.778715 22.709332 -17.623009 -66.324333 79.839046 -51.032468 1.037018 0.769595 0.002330 0.133990 -0.029480 -0.035860 
0.350920 17.254990 3.855070 -170.208100 -5.390233 172.686257 -14.736485 11.111380 1.251978 4.604798 -0.432194 -6.123579 -2.643567 4.773281 13.133024 -0.398263 3.697649 3.377119 0.361620 0.220010 0.188180 19.249818 -8.338664 7.177522 -31.441944 7.997564 -52.048821 79.405705 -19.321708 15.689417 -1.910780 -9.270894 1.156122 0.193150 0.213080 0.201080 -5.606514 0.630233 -9.013508 37.320060 -5.751215 16.255087 -17.256771 1.715840 13.741175 7.193657 -0.088023 -13.747987 -1.314413 -9.091836 31.580483 0.341260 -10.123260 -11.731330 -11.833824 -34.160273 7.757302 -13.606479 -24.465585 -7.550442 63.556837 -71.895852 -44.536543 -3.336060 1.865499 0.228610 0.081140 -0.039510 0.130550 -3.175880 35.100722 6.392027 14.723648 22.376977 -17.366120 -57.633260 78.024724 -43.563495 1.170257 0.005839 -0.058690 0.192660 0.024240 -0.023360 
0.203550 17.115700 3.777310 -171.306530 1.556960 175.118451 -14.772176 11.163666 1.298902 2.061870 -0.772034 -8.523143 -0.217856 4.163597 15.291015 -0.331142 3.392000 3.509170 0.341360 0.217950 0.138230 19.201897 -8.197398 7.409751 -33.700039 7.493304 -48.942363 72.860406 -9.219046 7.404101 -1.503941 -7.824658 1.586982 0.159320 0.229880 0.188160 -5.542645 0.493435 -9.025858 35.746474 -6.311092 16.457687 -17.695577 1.487040 13.349510 6.873647 0.068742 -14.815242 -0.848300 -10.691732 30.012868 0.511200 -11.789630 -9.690360 -12.674730 -34.714004 8.376589 -11.585257 -20.504205 -9.018450 57.671981 -68.572333 -37.768367 -3.377241 2.314413 0.151250 0.085760 -0.059580 0.179700 -1.923066 36.292413 7.272852 13.938284 21.574506 -17.828489 -47.965354 75.095432 -35.010648 1.354344 -0.725824 -0.018780 0.159460 -0.023430 0.034740 
0.065600 16.965700 3.672350 -171.246521 12.073328 177.761763 -14.807152 11.433749 1.539441 0.960694 -1.331404 -10.626914 0.750257 3.994289 17.968043 -0.292807 3.354906 3.487183 0.365890 0.254450 0.187930 19.050527 -8.463131 7.212766 -29.679901 6.946896 -49.345527 62.857310 -8.017416 7.057442 -1.282469 -7.146323 1.778076 0.146340 0.168750 0.197130 -5.376934 0.358628 -8.981841 33.628552 -5.885341 17.527828 -16.476924 2.212169 12.732402 7.411429 1.334191 -16.035289 1.624834 -10.070495 30.071496 -0.163430 -9.705940 -10.113210 -16.028993 -34.481767 9.849157 -14.307254 -16.585032 -10.010037 65.009894 -63.755052 -40.458692 -3.453492 2.354062 0.165820 0.064430 -0.009320 0.175020 0.055671 36.871860 7.531873 13.575451 23.811762 -16.512833 -36.442088 67.307974 -23.333868 1.539674 -1.291334 0.014530 0.116440 -0.066410 0.019060 
